<svg width="23" height="26" viewBox="0 0 23 26" fill="none" xmlns="http://www.w3.org/2000/svg">
<g id="Group">
<path id="Vector" d="M21.7237 20.2772C20.7741 18.5891 19.2188 16.6771 16.6867 15.5902C15.2385 16.6033 13.4792 17.1999 11.5826 17.1999C9.68493 17.1999 7.92563 16.6034 6.4774 15.5902C3.94535 16.6771 2.38996 18.5892 1.44088 20.2772C0.181278 22.5162 1.16884 25.6842 3.34727 25.6842C5.52576 25.6842 11.5826 25.6842 11.5826 25.6842C11.5826 25.6842 17.6389 25.6842 19.8175 25.6842C21.9958 25.6842 22.9834 22.5162 21.7237 20.2772Z" fill="#00AA96"/>
<path id="Vector_2" d="M11.5826 15.5902C15.3021 15.5902 18.3164 12.5748 18.3164 8.85585V7.24263C18.3164 3.52371 15.3021 0.508362 11.5826 0.508362C7.86261 0.508362 4.84781 3.52371 4.84781 7.24268V8.8559C4.84781 12.5748 7.86266 15.5902 11.5826 15.5902Z" fill="#00AA96"/>
</g>
</svg>
