<svg width="20" height="27" viewBox="0 0 20 27" fill="none" xmlns="http://www.w3.org/2000/svg">
<g id="Page-1">
<g id="Icon-Set-Filled">
<path id="location" fill-rule="evenodd" clip-rule="evenodd" d="M10.0691 7.43118C8.72258 7.43118 7.63122 8.52253 7.63122 9.86905C7.63122 11.2156 8.72258 12.3069 10.0691 12.3069C11.4156 12.3069 12.507 11.2156 12.507 9.86905C12.507 8.52253 11.4156 7.43118 10.0691 7.43118ZM10.0691 13.9322C7.82544 13.9322 6.00598 12.1135 6.00598 9.86905C6.00598 7.62459 7.82544 5.80594 10.0691 5.80594C12.3127 5.80594 14.1322 7.62459 14.1322 9.86905C14.1322 12.1135 12.3127 13.9322 10.0691 13.9322ZM10.0691 0.117584C4.68384 0.117584 0.317627 4.4838 0.317627 9.86905C0.317627 13.9468 8.44791 26.1304 10.0691 26.1215C11.6651 26.1304 19.8206 13.8915 19.8206 9.86905C19.8206 4.4838 15.4543 0.117584 10.0691 0.117584Z" fill="#00AA96"/>
</g>
</g>
</svg>
