<svg width="64" height="64" viewBox="0 0 64 64" fill="none" xmlns="http://www.w3.org/2000/svg">
<rect width="64" height="64" rx="32" fill="#00AA98" fill-opacity="0.2"/>
<path d="M26.7243 22.5H37.2765L39.0498 17.7714C39.1867 17.4064 39.1353 16.9979 38.9136 16.6781C38.692 16.3574 38.327 16.1666 37.9375 16.1666H34.9592C34.3196 15.2127 33.2326 14.5833 32 14.5833C30.7674 14.5833 29.6804 15.2127 29.0407 16.1666H26.0625C25.673 16.1666 25.308 16.3574 25.0872 16.6781C24.8655 16.9979 24.814 17.4064 24.951 17.7714L26.7243 22.5ZM38.9825 24.875H25.0175C21.7321 27.8041 16.7446 33.4646 17.0058 40.6133C17.1563 44.6587 20.4575 47.8333 24.5267 47.8333H39.4733C43.5425 47.8333 46.8437 44.6587 46.9942 40.6133C47.2554 33.4646 42.2679 27.8041 38.9825 24.875ZM33.1875 42.2996V42.6875C33.1875 43.3446 32.6571 43.875 32 43.875C31.3429 43.875 30.8125 43.3446 30.8125 42.6875V42.2441C29.5933 41.9908 28.5879 41.1121 28.2 39.885C28.0021 39.2596 28.3504 38.5946 28.9758 38.3966C29.6012 38.1987 30.2742 38.5471 30.4642 39.1725C30.6146 39.6396 31.0421 39.9562 31.5329 39.9562L32.9896 39.9404C33.7496 39.9325 34.375 39.3071 34.375 38.5471C34.375 37.7712 33.7496 37.1458 32.9737 37.1458H31.8179C29.7358 37.1458 28.0417 35.4516 28.0417 33.3696C28.0417 31.6516 29.2212 30.195 30.8125 29.7516V29.2291C30.8125 28.5721 31.3429 28.0416 32 28.0416C32.6571 28.0416 33.1875 28.5721 33.1875 29.2291V29.6804C34.4146 29.9416 35.4042 30.8283 35.7842 32.0554C35.9742 32.6808 35.6258 33.3458 34.9925 33.5437C34.3671 33.7337 33.7021 33.3775 33.5121 32.7521C33.3696 32.285 32.9342 31.9604 32.4433 31.9604L31.7942 31.9762C31.0342 31.9841 30.4167 32.6096 30.4167 33.3696C30.4167 34.1454 31.0421 34.7708 31.8179 34.7708H32.9737C35.0558 34.7708 36.75 36.465 36.75 38.5471C36.75 40.5421 35.1667 42.1808 33.1875 42.2996Z" fill="#00AA98"/>
</svg>
