<svg width="64" height="64" viewBox="0 0 64 64" fill="none" xmlns="http://www.w3.org/2000/svg">
<rect width="64" height="64" rx="32" fill="#00AA98" fill-opacity="0.2"/>
<path d="M32 16.25C30.6076 16.25 29.2723 16.8031 28.2877 17.7877C27.3031 18.7723 26.75 20.1076 26.75 21.5C26.75 22.8924 27.3031 24.2277 28.2877 25.2123C29.2723 26.1969 30.6076 26.75 32 26.75C33.3924 26.75 34.7277 26.1969 35.7123 25.2123C36.6969 24.2277 37.25 22.8924 37.25 21.5C37.25 20.1076 36.6969 18.7723 35.7123 17.7877C34.7277 16.8031 33.3924 16.25 32 16.25ZM20.625 18C19.4647 18 18.3519 18.4609 17.5314 19.2814C16.7109 20.1019 16.25 21.2147 16.25 22.375C16.25 23.5353 16.7109 24.6481 17.5314 25.4686C18.3519 26.2891 19.4647 26.75 20.625 26.75C21.7853 26.75 22.8981 26.2891 23.7186 25.4686C24.5391 24.6481 25 23.5353 25 22.375C25 21.2147 24.5391 20.1019 23.7186 19.2814C22.8981 18.4609 21.7853 18 20.625 18ZM43.375 18C42.2147 18 41.1019 18.4609 40.2814 19.2814C39.4609 20.1019 39 21.2147 39 22.375C39 23.5353 39.4609 24.6481 40.2814 25.4686C41.1019 26.2891 42.2147 26.75 43.375 26.75C44.5353 26.75 45.6481 26.2891 46.4686 25.4686C47.2891 24.6481 47.75 23.5353 47.75 22.375C47.75 21.2147 47.2891 20.1019 46.4686 19.2814C45.6481 18.4609 44.5353 18 43.375 18ZM32 47.75C27.6582 47.75 24.125 44.2167 24.125 39.875V31.5625C24.125 29.8738 25.4987 28.5 27.1875 28.5H36.8125C38.5012 28.5 39.875 29.8738 39.875 31.5625V39.875C39.875 44.2167 36.3417 47.75 32 47.75ZM22.375 39.875V31.5625C22.375 30.4005 22.7897 29.333 23.4784 28.5H17.5625C15.8737 28.5 14.5 29.8738 14.5 31.5625V37.25C14.5 41.1087 17.6412 44.25 21.5 44.25C22.1212 44.25 22.725 44.1712 23.3025 44.0137C23.3025 44.0137 23.3121 44.0094 23.32 44.0068C22.7206 42.7529 22.375 41.3546 22.375 39.875ZM41.625 39.875V31.5625C41.625 30.4005 41.2102 29.333 40.5216 28.5H46.4375C48.1262 28.5 49.5 29.8738 49.5 31.5625V37.25C49.5 41.1087 46.3587 44.25 42.5 44.25C41.8787 44.25 41.275 44.1712 40.6975 44.0137C40.6975 44.0137 40.6879 44.0094 40.68 44.0068C41.2794 42.7529 41.625 41.3546 41.625 39.875Z" fill="#00AA98"/>
</svg>
