<svg width="46" height="46" viewBox="0 0 46 46" fill="none" xmlns="http://www.w3.org/2000/svg">
<circle cx="22.5823" cy="22.5823" r="22.5823" fill="#00AA96" fill-opacity="0.07"/>
<path opacity="0.5" fill-rule="evenodd" clip-rule="evenodd" d="M16.125 10.1875C16.125 9.66974 15.7053 9.25 15.1875 9.25C14.6697 9.25 14.25 9.66974 14.25 10.1875V35.1875C14.25 35.7052 14.6697 36.125 15.1875 36.125C15.7053 36.125 16.125 35.7052 16.125 35.1875V25V12.5V10.1875Z" fill="#00AA98"/>
<path d="M24.6858 12.737L24.4311 12.6351C22.4776 11.8537 20.339 11.6574 18.2758 12.07L16.125 12.5002V25.0001L18.2758 24.57C20.339 24.1574 22.4776 24.3537 24.4311 25.1351C26.5481 25.9819 28.878 26.14 31.09 25.587L31.358 25.52C32.1394 25.3247 32.6875 24.6226 32.6875 23.8174V14.6085C32.6875 13.6328 31.7706 12.9169 30.824 13.1535C28.785 13.6633 26.6371 13.5175 24.6858 12.737Z" fill="#00AA98"/>
</svg>
