<svg width="46" height="46" viewBox="0 0 46 46" fill="none" xmlns="http://www.w3.org/2000/svg">
<circle cx="22.5823" cy="22.5823" r="22.5823" fill="#00AA96" fill-opacity="0.07"/>
<path d="M17.0417 23.7916C18.7059 23.7897 20.3252 23.2523 21.6602 22.2587C22.9952 21.2652 23.9749 19.8683 24.4545 18.2747C24.934 16.6812 24.8878 14.9756 24.3228 13.4103C23.7578 11.845 22.7039 10.5031 21.3171 9.58325H33.8334C34.5185 9.58325 35.1756 9.85542 35.6601 10.3399C36.1445 10.8244 36.4167 11.4814 36.4167 12.1666V32.8333C36.4167 33.5184 36.1445 34.1755 35.6601 34.6599C35.1756 35.1444 34.5185 35.4166 33.8334 35.4166H17.0417C16.3566 35.4166 15.6995 35.1444 15.215 34.6599C14.7305 34.1755 14.4584 33.5184 14.4584 32.8333V23.3395C15.2875 23.6359 16.1612 23.7887 17.0417 23.7916Z" fill="#00AA98"/>
<path d="M19.625 28.9582C19.625 28.6157 19.761 28.2871 20.0033 28.0449C20.2455 27.8027 20.5741 27.6666 20.9166 27.6666H31.25C31.5925 27.6666 31.9211 27.8027 32.1633 28.0449C32.4055 28.2871 32.5416 28.6157 32.5416 28.9582C32.5416 29.3008 32.4055 29.6294 32.1633 29.8716C31.9211 30.1138 31.5925 30.2499 31.25 30.2499H20.9166C20.5741 30.2499 20.2455 30.1138 20.0033 29.8716C19.761 29.6294 19.625 29.3008 19.625 28.9582ZM24.7916 23.7916C24.7916 23.449 24.9277 23.1205 25.1699 22.8782C25.4122 22.636 25.7407 22.4999 26.0833 22.4999H31.25C31.5925 22.4999 31.9211 22.636 32.1633 22.8782C32.4055 23.1205 32.5416 23.449 32.5416 23.7916C32.5416 24.1342 32.4055 24.4627 32.1633 24.7049C31.9211 24.9472 31.5925 25.0832 31.25 25.0832H26.0833C25.7407 25.0832 25.4122 24.9472 25.1699 24.7049C24.9277 24.4627 24.7916 24.1342 24.7916 23.7916ZM11.875 21.2082C11.705 21.2092 11.5365 21.1766 11.3791 21.1124C11.2217 21.0481 11.0786 20.9534 10.9579 20.8337C10.8368 20.7136 10.7407 20.5707 10.6751 20.4133C10.6096 20.2559 10.5758 20.0871 10.5758 19.9166C10.5758 19.7461 10.6096 19.5772 10.6751 19.4198C10.7407 19.2624 10.8368 19.1196 10.9579 18.9995L18.7079 11.2495C18.8283 11.1291 18.9713 11.0335 19.1286 10.9684C19.286 10.9032 19.4546 10.8696 19.625 10.8696C19.7953 10.8696 19.9639 10.9032 20.1213 10.9684C20.2786 11.0335 20.4216 11.1291 20.542 11.2495C20.6625 11.3699 20.758 11.5129 20.8232 11.6703C20.8884 11.8276 20.9219 11.9963 20.9219 12.1666C20.9219 12.3369 20.8884 12.5055 20.8232 12.6629C20.758 12.8203 20.6625 12.9632 20.542 13.0837L12.792 20.8337C12.6714 20.9534 12.5282 21.0481 12.3708 21.1124C12.2135 21.1766 12.045 21.2092 11.875 21.2082ZM18.9791 17.3332C18.5959 17.3332 18.2213 17.4469 17.9027 17.6598C17.5841 17.8727 17.3358 18.1753 17.1891 18.5293C17.0425 18.8833 17.0041 19.2729 17.0789 19.6487C17.1536 20.0246 17.3381 20.3698 17.6091 20.6408C17.8801 20.9117 18.2253 21.0963 18.6011 21.171C18.977 21.2458 19.3665 21.2074 19.7206 21.0608C20.0746 20.9141 20.3772 20.6658 20.5901 20.3472C20.803 20.0285 20.9166 19.6539 20.9166 19.2707C20.9166 18.7569 20.7125 18.2641 20.3491 17.9007C19.9858 17.5374 19.493 17.3332 18.9791 17.3332ZM12.5208 10.8749C12.1376 10.8749 11.763 10.9885 11.4444 11.2014C11.1258 11.4143 10.8774 11.7169 10.7308 12.071C10.5841 12.425 10.5458 12.8146 10.6205 13.1904C10.6953 13.5662 10.8798 13.9115 11.1508 14.1824C11.4217 14.4534 11.767 14.6379 12.1428 14.7127C12.5186 14.7874 12.9082 14.7491 13.2622 14.6024C13.6163 14.4558 13.9189 14.2075 14.1318 13.8888C14.3447 13.5702 14.4583 13.1956 14.4583 12.8124C14.4583 12.2986 14.2542 11.8057 13.8908 11.4424C13.5275 11.079 13.0347 10.8749 12.5208 10.8749Z" fill="#00473F"/>
</svg>
