<svg width="46" height="46" viewBox="0 0 46 46" fill="none" xmlns="http://www.w3.org/2000/svg">
<circle cx="22.5823" cy="22.5823" r="22.5823" fill="#00AA96" fill-opacity="0.07"/>
<path fill-rule="evenodd" clip-rule="evenodd" d="M34 14H12V19.6667C13.5188 19.6667 14.75 20.9352 14.75 22.5C14.75 24.0648 13.5188 25.3333 12 25.3333V31H34V25.3333C32.4812 25.3333 31.25 24.0648 31.25 22.5C31.25 20.9352 32.4812 19.6667 34 19.6667V14ZM23 25.3333C24.5188 25.3333 25.75 24.0648 25.75 22.5C25.75 20.9352 24.5188 19.6667 23 19.6667C21.4812 19.6667 20.25 20.9352 20.25 22.5C20.25 24.0648 21.4812 25.3333 23 25.3333Z" fill="#00AA98"/>
</svg>
