<?xml version="1.0" encoding="UTF-8"?>
<svg version="1.1" xmlns="http://www.w3.org/2000/svg" width="512" height="512">
<path d="M0 0 C6.24510145 1.40703335 11.85806818 5.09261336 17.42016602 8.15234375 C19.1294365 9.08532155 20.85049514 9.99659998 22.57177734 10.90722656 C23.58393311 11.4623291 24.59608887 12.01743164 25.63891602 12.58935547 C28.41092626 13.82517923 28.41092626 13.82517923 31.08935547 12.88378906 C33.2802757 11.65961013 35.34547286 10.40540043 37.39208984 8.95410156 C38.46426758 8.21933594 38.46426758 8.21933594 39.55810547 7.46972656 C41.03435474 6.44660922 42.50322608 5.41276059 43.96435547 4.36816406 C47.92836899 1.68045624 51.35519457 -0.41708524 56.35668945 -0.04833984 C61.95831002 1.55545709 66.59120624 5.71253544 71.22021484 9.11035156 C75.88161682 12.62047349 75.88161682 12.62047349 81.40380859 13.30566406 C82.91974609 12.43941406 82.91974609 12.43941406 84.46630859 11.55566406 C86.17029095 10.68504918 87.87623867 9.81827645 89.58349609 8.95410156 C92.47687892 7.4417419 95.36288348 5.9190177 98.23583984 4.36816406 C103.91541523 1.42319905 108.04230925 -0.50323693 114.46630859 0.55566406 C117.25323551 2.66956631 118.34039297 3.8334826 118.94732666 7.31451416 C118.93844421 8.37152527 118.92956177 9.42853638 118.92041016 10.51757812 C118.92010803 11.71852112 118.91980591 12.91946411 118.91949463 14.15679932 C118.89884949 15.44858093 118.87820435 16.74036255 118.85693359 18.07128906 C118.8494693 19.41077835 118.84377725 20.75027859 118.83978271 22.08978271 C118.82454072 25.60817843 118.78527277 29.12590922 118.7409668 32.64404297 C118.69998223 36.23688767 118.68176499 39.82984026 118.66162109 43.42285156 C118.61877604 50.46739373 118.55054306 57.51148539 118.46630859 64.55566406 C119.81208984 64.52424316 119.81208984 64.52424316 121.18505859 64.4921875 C124.54730718 64.4235879 127.90880094 64.37366112 131.27148438 64.3359375 C132.72049777 64.31595111 134.16943185 64.28875209 135.61816406 64.25390625 C145.02607386 64.03345902 152.24149649 63.97712663 159.70849609 70.52050781 C167.66894658 80.13779848 167.62226877 88.8792878 167.52880859 100.99316406 C167.52429688 102.10626953 167.51978516 103.219375 167.51513672 104.36621094 C167.50342052 107.09608507 167.48701558 109.8258458 167.46630859 112.55566406 C168.11584661 112.55197689 168.76538462 112.54828972 169.4346056 112.54449081 C185.27762298 112.45595139 201.12055368 112.38986322 216.96375751 112.34841537 C224.62558723 112.32783603 232.28725127 112.29980468 239.94897461 112.25390625 C246.63102323 112.21389594 253.3129518 112.18819765 259.99511689 112.17931008 C263.52962918 112.17411917 267.06379816 112.162017 270.59819984 112.13274384 C274.55470586 112.10024389 278.51088347 112.09971371 282.4675293 112.1015625 C283.62487579 112.0871814 284.78222229 112.07280029 285.97463989 112.0579834 C297.66000812 112.11681674 306.96164047 115.43684099 315.46630859 123.55566406 C326.242711 134.84421232 327.10552065 146.8706376 327.32446289 161.78076172 C327.27524429 163.58077606 327.27524429 163.58077606 328.46630859 164.55566406 C328.59912109 166.36816406 328.59912109 166.36816406 328.59130859 168.55566406 C328.59388672 169.27753906 328.59646484 169.99941406 328.59912109 170.74316406 C328.46630859 172.55566406 328.46630859 172.55566406 327.46630859 173.55566406 C327.36715905 175.03634126 327.33722732 176.52171532 327.33500671 178.00570679 C327.33099854 178.96722656 327.32699036 179.92874634 327.32286072 180.91940308 C327.32338943 181.98321198 327.32391815 183.04702087 327.32446289 184.14306641 C327.32098846 185.2569574 327.31751404 186.37084839 327.31393433 187.51849365 C327.30655954 189.94829174 327.30122339 192.37809665 327.29764366 194.80790329 C327.29049537 198.65882612 327.27483838 202.50962025 327.25630188 206.36050415 C327.20377429 217.31372149 327.15547251 228.26687365 327.14038086 239.22021484 C327.13106472 245.91291539 327.10086991 252.60525177 327.05906105 259.29784012 C327.04677752 261.84535939 327.04162493 264.39292375 327.04385948 266.94047165 C327.04622434 270.51876246 327.02395144 274.0961483 326.99633789 277.67431641 C327.0029393 278.717883 327.00954071 279.76144958 327.01634216 280.8366394 C326.87386515 292.14687417 323.29975025 301.34994003 315.46630859 309.55566406 C305.81177107 318.77218854 295.52871625 321.17206299 282.4675293 321.00976562 C280.59243431 321.01064178 280.59243431 321.01064178 278.67945862 321.01153564 C275.28726333 321.00924387 271.89606974 320.98933371 268.50405145 320.96123981 C264.9460249 320.93605225 261.38798172 320.93387061 257.82987976 320.92913818 C251.10816915 320.91675893 244.3867221 320.88400671 237.66512698 320.84374022 C230.00604652 320.79886412 222.34695277 320.77699588 214.68777335 320.75695848 C198.94713303 320.71526878 183.20675494 320.64501639 167.46630859 320.55566406 C167.47074982 321.43547943 167.47519104 322.3152948 167.47976685 323.22177124 C167.5199836 331.54798185 167.55036384 339.87415944 167.56993294 348.20044518 C167.58033208 352.48018949 167.59441988 356.75985297 167.6171875 361.03955078 C167.6390548 365.17630422 167.65090626 369.31298032 167.65606308 373.44978714 C167.65973407 375.02128948 167.66690199 376.592788 167.67776871 378.16425705 C167.82920187 400.98898016 167.82920187 400.98898016 161.46630859 408.55566406 C155.33772074 414.62588441 150.44073047 416.8607034 141.70573425 416.8230896 C140.93123171 416.82762071 140.15672916 416.83215183 139.35875684 416.83682024 C136.7671865 416.84946616 134.17582627 416.84784376 131.58422852 416.84619141 C129.72457102 416.85217656 127.86491602 416.85898208 126.00526428 416.86654663 C120.95558419 416.8842157 115.90597189 416.88890241 110.85626388 416.8901782 C107.70045183 416.89159991 104.54465702 416.89586988 101.38884926 416.90117264 C90.37649059 416.91967628 79.36418034 416.92784287 68.35180664 416.92626953 C58.0913171 416.92506821 47.83103795 416.9461679 37.57060164 416.97775686 C28.75769983 417.00392109 19.94486671 417.01463675 11.13192636 417.01335871 C5.87005837 417.0128491 0.60837733 417.01853189 -4.65345192 417.03971481 C-9.60375956 417.05909945 -14.55370197 417.05922003 -19.5040226 417.04468155 C-21.31802403 417.0425926 -23.13204833 417.04729946 -24.94601059 417.05940247 C-27.42848913 417.07488942 -29.9097137 417.06552489 -32.39216614 417.05014038 C-33.10473298 417.06042751 -33.81729983 417.07071463 -34.55145961 417.08131349 C-40.94389455 416.99416976 -46.01945747 414.75890391 -50.77587891 410.59082031 C-58.69578057 401.02251807 -58.6835441 392.28450098 -58.66740417 380.24015808 C-58.66966973 378.99983285 -58.67193529 377.75950761 -58.6742695 376.48159677 C-58.67949516 373.05062252 -58.68025601 369.61970079 -58.67907512 366.18872631 C-58.67887066 362.48377985 -58.68439416 358.77884114 -58.68913269 355.07389832 C-58.69742994 347.81970739 -58.70018711 340.5655246 -58.70074507 333.31132933 C-58.70122065 327.41341121 -58.70327752 321.51549577 -58.70644569 315.61757851 C-58.71524962 298.88698218 -58.71986546 282.15639227 -58.71911522 265.42579361 C-58.71907526 264.52433201 -58.71903531 263.62287041 -58.71899414 262.6940918 C-58.71895326 261.79152652 -58.71891238 260.88896125 -58.71887026 259.95904551 C-58.71846383 245.33248575 -58.72803334 230.70595174 -58.74213251 216.07939943 C-58.75650329 201.0522228 -58.76340231 186.02505871 -58.76253873 170.99787503 C-58.76220701 162.56476174 -58.76494313 154.13167544 -58.77571678 145.69856834 C-58.784831 138.51852322 -58.78698945 131.33851733 -58.78020736 124.15846892 C-58.77694686 120.49749723 -58.77686846 116.83660078 -58.78556061 113.17563629 C-58.79489996 109.20109654 -58.78863733 105.22666611 -58.78092957 101.25212097 C-58.78607313 100.10317594 -58.79121669 98.95423091 -58.79651612 97.77046937 C-58.75775331 88.71322478 -58.59300046 79.76132888 -52.53369141 72.55566406 C-47.87657852 67.94290463 -43.88259595 64.77842933 -37.12036133 64.32861328 C-35.84781494 64.33908691 -34.57526855 64.34956055 -33.26416016 64.36035156 C-32.5831575 64.36318146 -31.90215485 64.36601135 -31.20051575 64.368927 C-29.04055686 64.38005881 -26.88102347 64.4051495 -24.72119141 64.43066406 C-23.2504943 64.44070295 -21.77979065 64.44982721 -20.30908203 64.45800781 C-16.71714855 64.47997493 -13.12546156 64.51445586 -9.53369141 64.55566406 C-9.54257385 63.81286194 -9.5514563 63.07005981 -9.56060791 62.30474854 C-9.64078884 55.30116501 -9.70167327 48.29774071 -9.74094009 41.29382706 C-9.76180653 37.69308121 -9.79010561 34.09271491 -9.83544922 30.4921875 C-9.87894265 27.01678493 -9.90283562 23.54174719 -9.91320038 20.06609344 C-9.92417756 18.09620623 -9.95539841 16.12646559 -9.98687744 14.15679932 C-9.98717957 12.95585632 -9.98748169 11.75491333 -9.98779297 10.51757812 C-9.99667542 9.46056702 -10.00555786 8.40355591 -10.01470947 7.31451416 C-9.05222065 1.79421757 -5.46386456 -0.28097705 0 0 Z M48.41943359 22.18066406 C47.65630859 22.72207031 46.89318359 23.26347656 46.10693359 23.82128906 C44.52340311 24.9701249 42.94517262 26.12630468 41.37255859 27.29003906 C37.14858896 30.26666196 33.80176849 32.49004579 28.51123047 32.04785156 C24.38635394 31.0550446 20.78975549 29.08463081 17.09130859 27.05566406 C15.50182485 26.20878712 13.91075408 25.36487996 12.31787109 24.52441406 C11.62516113 24.14736328 10.93245117 23.7703125 10.21875 23.38183594 C8.4877054 22.41352137 8.4877054 22.41352137 6.46630859 22.55566406 C6.46630859 46.97566406 6.46630859 71.39566406 6.46630859 96.55566406 C38.14630859 96.55566406 69.82630859 96.55566406 102.46630859 96.55566406 C102.46630859 72.13566406 102.46630859 47.71566406 102.46630859 22.55566406 C96.5371395 24.53205376 91.55330625 27.10529622 86.09912109 30.09472656 C82.02402039 31.7335305 78.74965713 32.55739096 74.46630859 31.55566406 C71.13875459 29.87639834 68.20760252 27.76922157 65.21630859 25.55566406 C63.65445276 24.42255296 62.08694346 23.29718289 60.51318359 22.18066406 C59.83094727 21.67792969 59.14871094 21.17519531 58.44580078 20.65722656 C54.38222477 18.39589763 51.81496373 19.67852566 48.41943359 22.18066406 Z M-39.53369141 83.55566406 C-40.79480788 86.077897 -40.66253157 87.8076565 -40.66791248 90.63197136 C-40.67237033 91.71333929 -40.67682817 92.79470722 -40.6814211 93.90884387 C-40.68123674 95.10648368 -40.68105238 96.30412349 -40.68086243 97.53805542 C-40.68453911 98.80284324 -40.6882158 100.06763106 -40.69200391 101.37074578 C-40.70204002 104.89299408 -40.70574327 108.41522535 -40.70839322 111.93748593 C-40.71229143 115.73170782 -40.72187 119.52591615 -40.73060608 123.32012939 C-40.7503828 132.48809583 -40.76043762 141.6560634 -40.76933387 150.82404584 C-40.77371425 155.13806015 -40.77908166 159.45207324 -40.78432274 163.76608658 C-40.80133521 178.10059543 -40.81583082 192.4351035 -40.82307148 206.7696209 C-40.82498147 210.49078243 -40.82690179 214.21194396 -40.82885742 217.93310547 C-40.82934116 218.8580158 -40.8298249 219.78292614 -40.8303233 220.73586406 C-40.83862899 235.72894765 -40.86397488 250.72195159 -40.8964381 265.71500038 C-40.92947249 281.09681342 -40.9475169 296.47858593 -40.95071572 311.86043465 C-40.95288404 320.50138609 -40.96167968 329.14222133 -40.9871769 337.78313828 C-41.00883442 345.1399043 -41.01695878 352.49652593 -41.00721011 359.85332023 C-41.00265112 363.60878671 -41.00464365 367.36395496 -41.02397156 371.11938095 C-41.04472212 375.1862346 -41.0346642 379.25242065 -41.0214386 383.31930542 C-41.03240784 384.51248379 -41.04337709 385.70566215 -41.05467874 386.93499744 C-41.04609785 388.02158086 -41.03751695 389.10816429 -41.02867603 390.22767448 C-41.02965284 391.16677788 -41.03062965 392.10588127 -41.03163606 393.07344234 C-40.37861675 396.32870116 -39.09208191 397.50390991 -36.53369141 399.55566406 C-33.01663803 400.72801519 -30.24513882 400.68752512 -26.53166199 400.69610596 C-25.45610934 400.70056264 -25.45610934 400.70056264 -24.35882837 400.70510936 C-21.94990052 400.71379898 -19.54102236 400.71530482 -17.13208008 400.71679688 C-15.4074035 400.72142486 -13.68272795 400.72644949 -11.95805359 400.73184204 C-7.2678957 400.74496986 -2.57775212 400.75141174 2.11242127 400.7558527 C5.04206361 400.75878279 7.97170203 400.76288747 10.90134239 400.76735687 C20.06582141 400.78103276 29.23029147 400.79069899 38.39477998 400.79455876 C48.97699102 400.79904 59.55907293 400.81659058 70.14124471 400.84555936 C78.31882868 400.86716917 86.4963763 400.87726267 94.67398852 400.87859988 C99.55909002 400.8796484 104.44407015 400.88556628 109.32914162 400.90341949 C113.92478854 400.91988807 118.52022269 400.92206159 123.1158886 400.91328049 C124.80172419 400.91250946 126.48757116 400.91686144 128.17337799 400.92673874 C130.47694822 400.93944299 132.77976313 400.9335902 135.08332825 400.92315674 C136.37178555 400.9246233 137.66024286 400.92608986 138.98774433 400.92760086 C142.79320145 400.52071186 145.22123537 399.55435027 148.46630859 397.55566406 C149.72742506 395.03343112 149.59514876 393.30367162 149.60052967 390.47935677 C149.60721644 388.85730487 149.60721644 388.85730487 149.61403829 387.20248425 C149.61385393 386.00484444 149.61366956 384.80720463 149.61347961 383.57327271 C149.6171563 382.30848489 149.62083299 381.04369707 149.62462109 379.74058235 C149.63465721 376.21833404 149.63836046 372.69610277 149.6410104 369.17384219 C149.64490862 365.37962031 149.65448719 361.58541198 149.66322327 357.79119873 C149.68299998 348.62323229 149.69305481 339.45526473 149.70195106 330.28728229 C149.70633144 325.97326797 149.71169884 321.65925489 149.71693993 317.34524155 C149.7339524 303.0107327 149.74844801 288.67622462 149.75568867 274.34170723 C149.75759865 270.6205457 149.75951897 266.89938417 149.76147461 263.17822266 C149.76195835 262.25331232 149.76244209 261.32840199 149.76294049 260.37546407 C149.77124617 245.38238048 149.79659207 230.38937653 149.82905529 215.39632775 C149.86208968 200.0145147 149.88013409 184.63274219 149.88333291 169.25089347 C149.88550123 160.60994204 149.89429686 151.96910679 149.91979408 143.32818985 C149.9414516 135.97142382 149.94957597 128.61480219 149.9398273 121.2580079 C149.93526831 117.50254141 149.93726084 113.74737317 149.95658875 109.99194717 C149.97733931 105.92509352 149.96728139 101.85890747 149.95405579 97.79202271 C149.96502503 96.59884434 149.97599428 95.40566597 149.98729593 94.17633069 C149.97871503 93.08974726 149.97013414 92.00316384 149.96129322 90.88365364 C149.96275843 89.47499855 149.96275843 89.47499855 149.96425325 88.03788579 C149.31123393 84.78262696 148.0246991 83.60741822 145.46630859 81.55566406 C142.34787609 80.51618656 140.19155273 80.44071568 136.92333984 80.45800781 C135.31362305 80.4628418 135.31362305 80.4628418 133.67138672 80.46777344 C132.55183594 80.47615234 131.43228516 80.48453125 130.27880859 80.49316406 C128.58208008 80.49993164 128.58208008 80.49993164 126.85107422 80.50683594 C124.05612983 80.51862895 121.2612126 80.53656449 118.46630859 80.55566406 C118.46630859 85.83566406 118.46630859 91.11566406 118.46630859 96.55566406 C123.00732422 96.79980469 123.00732422 96.79980469 127.54833984 97.04394531 C130.46630859 97.55566406 130.46630859 97.55566406 132.32958984 98.84863281 C133.70075378 100.90773467 133.86926569 102.0954393 133.84130859 104.55566406 C133.84904297 105.23628906 133.85677734 105.91691406 133.86474609 106.61816406 C133.33115907 109.21286175 132.57993035 109.95913963 130.46630859 111.55566406 C127.73170471 111.93318748 127.73170471 111.93318748 124.35522461 111.93661499 C123.07648468 111.94507446 121.79774475 111.95353394 120.48025513 111.96224976 C119.06024043 111.95641664 117.64022699 111.95027212 116.22021484 111.94384766 C114.72711808 111.94791203 113.23402432 111.95325316 111.74093628 111.95977783 C107.68311589 111.97347331 103.6255239 111.96814367 99.56769943 111.95864058 C95.32499314 111.95105549 91.08230665 111.95808638 86.83959961 111.96279907 C79.71415692 111.96825999 72.58880745 111.96105622 65.46337891 111.94677734 C57.22051173 111.93045015 48.97786716 111.93573843 40.73500538 111.95225656 C33.66317493 111.96586187 26.59141156 111.96779578 19.51957226 111.95994055 C15.2935388 111.95525876 11.06761003 111.95465301 6.84158325 111.96455002 C2.86887292 111.97320357 -1.10354989 111.96722754 -5.0762291 111.94986725 C-6.53594357 111.94589374 -7.99568217 111.9470512 -9.45538712 111.95365524 C-11.44445188 111.96182589 -13.4335694 111.94977342 -15.42260742 111.93661499 C-16.53684586 111.93548391 -17.65108429 111.93435284 -18.79908752 111.93318748 C-21.53369141 111.55566406 -21.53369141 111.55566406 -23.39073181 110.15294838 C-24.8152883 108.16213283 -24.93633347 106.98816524 -24.90869141 104.55566406 C-24.91642578 103.87503906 -24.92416016 103.19441406 -24.93212891 102.49316406 C-24.39633057 99.88771333 -23.72163579 99.07392316 -21.53369141 97.55566406 C-18.61572266 97.04394531 -18.61572266 97.04394531 -15.34619141 96.86816406 C-13.42806641 96.76503906 -11.50994141 96.66191406 -9.53369141 96.55566406 C-9.53369141 91.27566406 -9.53369141 85.99566406 -9.53369141 80.55566406 C-13.40911418 80.47455056 -17.28283023 80.41510356 -21.15869141 80.36816406 C-22.25310547 80.34302734 -23.34751953 80.31789063 -24.47509766 80.29199219 C-32.43392898 80.18617837 -32.43392898 80.18617837 -39.53369141 83.55566406 Z M167.46630859 128.55566406 C167.46630859 139.11566406 167.46630859 149.67566406 167.46630859 160.55566406 C214.65630859 160.55566406 261.84630859 160.55566406 310.46630859 160.55566406 C310.46630859 151.15498505 310.02546661 142.81649945 303.46630859 135.55566406 C294.33938307 128.43975603 285.87853423 128.40534287 274.74780273 128.44213867 C273.58610565 128.44199265 272.42440857 128.44184662 271.22750854 128.44169617 C267.4021414 128.44239073 263.57682344 128.4501618 259.75146484 128.45800781 C257.09345924 128.45987361 254.43545634 128.46134597 251.77745056 128.46229553 C245.50550746 128.46539671 239.2335819 128.47359367 232.9616465 128.48364502 C225.81772894 128.49484393 218.67381052 128.50032611 211.52988636 128.50534046 C196.84201693 128.51577735 182.1541663 128.53410768 167.46630859 128.55566406 Z M167.46630859 176.55566406 C167.46630859 218.79566406 167.46630859 261.03566406 167.46630859 304.55566406 C196.64037109 304.61753906 196.64037109 304.61753906 226.40380859 304.68066406 C232.53450928 304.69887207 238.66520996 304.71708008 244.98168945 304.73583984 C250.49939616 304.74253062 250.49939616 304.74253062 256.0171051 304.74655151 C258.46588366 304.74961334 260.91465929 304.75662809 263.36341858 304.76681519 C267.08258262 304.78150767 270.80156313 304.78347425 274.52075195 304.78271484 C276.14443018 304.79350917 276.14443018 304.79350917 277.80091 304.80452156 C287.25261442 304.77878038 296.06480105 303.92289981 303.46630859 297.55566406 C310.27482002 289.64120154 310.76996424 280.01401923 310.69335938 269.98706055 C310.69372098 268.43913236 310.69372098 268.43913236 310.69408989 266.8599329 C310.69260764 263.5487841 310.67742503 260.23786586 310.66162109 256.92675781 C310.65867728 254.87081002 310.65663893 252.81486073 310.65551758 250.75891113 C310.64506943 243.17030579 310.61714688 235.58173261 310.59130859 227.99316406 C310.55005859 211.01878906 310.50880859 194.04441406 310.46630859 176.55566406 C263.27630859 176.55566406 216.08630859 176.55566406 167.46630859 176.55566406 Z " fill="#788F9B" transform="translate(121.53369140625,47.4443359375)"/>
<path d="M0 0 C1.54954124 -0.0129007 1.54954124 -0.0129007 3.13038635 -0.02606201 C4.8298793 -0.03245193 4.8298793 -0.03245193 6.56370544 -0.03897095 C7.75752335 -0.04714844 8.95134125 -0.05532593 10.18133545 -0.06375122 C14.14268153 -0.08861641 18.10402008 -0.10528148 22.06541443 -0.11953735 C23.43188419 -0.12489915 24.79835389 -0.13027666 26.16482353 -0.13566971 C31.85322562 -0.15729924 37.54162492 -0.17603194 43.23005772 -0.1872921 C51.36520072 -0.20350401 59.49986403 -0.23661292 67.63482624 -0.29369295 C73.36323332 -0.33250632 79.09151275 -0.35193849 84.8200478 -0.35721266 C88.23661988 -0.36085218 91.65268007 -0.37272097 95.06910896 -0.4053154 C98.88929022 -0.4370052 102.70827048 -0.43699659 106.52854919 -0.42959595 C107.64737488 -0.44600128 108.76620056 -0.46240662 109.91893005 -0.47930908 C118.03675352 -0.41516572 124.8598199 1.30567633 130.9397974 6.95826149 C139.06855819 15.79827288 138.18555818 26.88792505 138.18431091 38.23178101 C138.18649221 40.45015815 138.20467464 42.66803287 138.22361755 44.88632202 C138.30706877 65.65242268 138.30706877 65.65242268 131.99900818 73.15390015 C126.770366 78.33274574 122.25067266 81.39352515 114.66812134 81.42132568 C113.61262589 81.42985565 112.55713043 81.43838562 111.46965027 81.44717407 C110.32200195 81.4462677 109.17435364 81.44536133 107.9919281 81.44442749 C106.77509842 81.45114471 105.55826874 81.45786194 104.30456543 81.46478271 C100.97377559 81.48051142 97.64323513 81.48713694 94.31242537 81.48841429 C92.22867187 81.4898382 90.14494432 81.49411236 88.06119728 81.49940872 C80.78353345 81.51790085 73.50594277 81.52608049 66.22825623 81.52450562 C59.45774202 81.52330491 52.68754696 81.54439511 45.91711348 81.57599294 C40.0935661 81.60219743 34.27012266 81.61287115 28.44651681 81.6115948 C24.97313318 81.61108632 21.50003321 81.61670545 18.0267086 81.6379509 C14.14910445 81.66102247 10.27193333 81.65178683 6.39427185 81.63973999 C5.25269623 81.650979 4.11112061 81.66221802 2.93495178 81.67379761 C-4.84559364 81.61245026 -10.22925644 80.45909683 -16.24317932 75.1890564 C-24.42698549 65.30192215 -24.18766428 55.53362555 -24.18629456 43.07601929 C-24.18847585 40.85764215 -24.20665828 38.63976743 -24.2256012 36.42147827 C-24.31052399 15.83073403 -24.31052399 15.83073403 -17.78614807 7.91171265 C-12.69619949 2.89972827 -7.16343244 0.04441788 0 0 Z " fill="#7A929D" transform="translate(119.00099182128906,190.84609985351563)"/>
<path d="M0 0 C1.12265259 -0.0087616 2.24530518 -0.01752319 3.40197754 -0.02655029 C7.10692172 -0.04852749 10.81066902 -0.03399593 14.515625 -0.01708984 C17.09342681 -0.02045842 19.67122707 -0.02531138 22.24902344 -0.03158569 C27.64925743 -0.03895484 33.04904295 -0.02872785 38.44921875 -0.00488281 C44.68314432 0.02232671 50.91625216 0.01351162 57.15015793 -0.01401484 C63.15917968 -0.03948128 69.16780295 -0.03673217 75.17687988 -0.02210617 C77.72855748 -0.01877173 80.28025597 -0.02286048 82.83190918 -0.03450394 C86.39891771 -0.04720868 89.9643582 -0.02783734 93.53125 0 C94.58493774 -0.01012115 95.63862549 -0.02024231 96.72424316 -0.03067017 C101.27429899 0.0350848 104.72694649 0.09426164 108.42123413 2.93887329 C111.51628632 6.51409148 111.51628632 6.51409148 111.51025391 9.62353516 C111.52894028 10.73994385 111.52894028 10.73994385 111.54800415 11.87890625 C111.52958466 12.66861816 111.51116516 13.45833008 111.4921875 14.27197266 C111.49368301 15.50874756 111.49368301 15.50874756 111.49520874 16.77050781 C111.49054076 18.50872468 111.47116181 20.24695672 111.43798828 21.98486328 C111.39076519 24.63909288 111.39687369 27.28930417 111.41015625 29.94384766 C111.39900194 31.63657983 111.38478165 33.32929516 111.3671875 35.02197266 C111.36901031 35.81168457 111.37083313 36.60139648 111.37271118 37.41503906 C111.35364716 38.15931152 111.33458313 38.90358398 111.31494141 39.67041016 C111.30111923 40.64373291 111.30111923 40.64373291 111.28701782 41.63671875 C110.4137403 45.00368023 109.44364019 46.35553678 106.765625 48.64697266 C102.97355844 49.41447521 99.21697649 49.32939343 95.359375 49.29394531 C94.1947876 49.30270691 93.0302002 49.31146851 91.83032227 49.32049561 C87.97504585 49.34252884 84.12091338 49.32792128 80.265625 49.31103516 C77.59048023 49.31440213 74.9153704 49.31924581 72.24023438 49.32553101 C66.63138399 49.33462519 61.02286288 49.32264616 55.4140625 49.29882812 C48.93134931 49.27161671 42.44942235 49.28043108 35.96672821 49.30796015 C30.39883448 49.33065724 24.83117731 49.33384856 19.26325226 49.32076681 C15.93861308 49.3129753 12.61442411 49.31388741 9.28979492 49.32844925 C5.58327762 49.34112017 1.87827892 49.32182988 -1.828125 49.29394531 C-2.92954834 49.30406647 -4.03097168 49.31418762 -5.16577148 49.32461548 C-12.56316483 49.22129168 -12.56316483 49.22129168 -15.91293335 46.35507202 C-17.12567516 43.86973692 -17.74501856 42.39365505 -17.78369141 39.67041016 C-17.81228745 38.55400146 -17.81228745 38.55400146 -17.84146118 37.41503906 C-17.83963837 36.62532715 -17.83781555 35.83561523 -17.8359375 35.02197266 C-17.84450775 34.19745605 -17.853078 33.37293945 -17.86190796 32.5234375 C-17.8733611 30.78535628 -17.87441958 29.04717923 -17.86572266 27.30908203 C-17.85939276 24.65442273 -17.90636904 22.00420736 -17.95703125 19.35009766 C-17.961577 17.65739493 -17.96298433 15.96468025 -17.9609375 14.27197266 C-17.97935699 13.48226074 -17.99777649 12.69254883 -18.01675415 11.87890625 C-18.00429657 11.13463379 -17.99183899 10.39036133 -17.97900391 9.62353516 C-17.98089218 8.6502124 -17.98089218 8.6502124 -17.9828186 7.65722656 C-14.95688617 -0.47016268 -7.32553285 -0.07036511 0 0 Z " fill="#C6F5CC" transform="translate(129.234375,206.35302734375)"/>
<path d="M0 0 C1.10794922 -0.00615326 2.21589844 -0.01230652 3.35742188 -0.01864624 C5.1450293 0.00291031 5.1450293 0.00291031 6.96875 0.02490234 C8.81049805 0.02627701 8.81049805 0.02627701 10.68945312 0.02767944 C13.28519558 0.03372094 15.88093088 0.04948315 18.4765625 0.07421875 C22.45338587 0.11069891 26.42927688 0.11523829 30.40625 0.11474609 C32.9270914 0.12457811 35.44792648 0.13623548 37.96875 0.14990234 C39.16048828 0.15212799 40.35222656 0.15435364 41.58007812 0.15664673 C42.68802734 0.16940643 43.79597656 0.18216614 44.9375 0.1953125 C45.91138672 0.2029361 46.88527344 0.21055969 47.88867188 0.21841431 C50.60376412 0.49983408 52.19642806 0.99248502 54.46875 2.48583984 C56.90376621 6.13836415 56.73249709 7.91029278 56.75927734 12.26464844 C56.76599457 12.94955856 56.77271179 13.63446869 56.77963257 14.34013367 C56.7986342 16.60492198 56.80253788 18.86941427 56.8046875 21.13427734 C56.81111427 22.70985028 56.81784254 24.28542201 56.82485962 25.86099243 C56.83683801 29.16468065 56.84053991 32.46826426 56.83935547 35.77197266 C56.83915232 40.00121497 56.86644699 44.22978499 56.90089989 48.45886803 C56.92316067 51.71372546 56.92719326 54.96842095 56.92613602 58.22334671 C56.92849351 59.7822463 56.93732547 61.34115026 56.95280075 62.89997482 C56.97244407 65.0832063 56.96663077 67.26498629 56.95458984 69.44824219 C56.95743988 70.68939789 56.96028992 71.93055359 56.96322632 73.20932007 C56.3670433 77.15977304 55.41957476 78.81009181 52.46875 81.48583984 C49.895401 82.1072998 49.895401 82.1072998 46.95336914 82.10107422 C45.84864761 82.11037964 44.74392609 82.11968506 43.60572815 82.12927246 C41.82282631 82.10467957 41.82282631 82.10467957 40.00390625 82.07958984 C38.77844589 82.07963013 37.55298553 82.07967041 36.29039001 82.07971191 C33.6988309 82.07435044 31.10727255 82.0567414 28.51586914 82.02783203 C24.54978697 81.9860352 20.58540554 81.98675835 16.61914062 81.99365234 C14.1015507 81.98315809 11.58396954 81.97021873 9.06640625 81.95458984 C7.87982925 81.95438843 6.69325226 81.95418701 5.47071838 81.95397949 C4.3628447 81.93806763 3.25497101 81.92215576 2.11352539 81.90576172 C1.14185928 81.89734253 0.17019318 81.88892334 -0.83091736 81.88024902 C-4.02458272 81.41378392 -5.92985667 80.36799009 -8.53125 78.48583984 C-9.99184326 75.56465332 -9.68281549 72.97523744 -9.70825195 69.71289062 C-9.71482315 69.01676666 -9.72139435 68.3206427 -9.72816467 67.60342407 C-9.74790198 65.29599911 -9.75956041 62.9886392 -9.76953125 60.68115234 C-9.77360678 59.89363461 -9.7776823 59.10611687 -9.78188133 58.29473495 C-9.80274273 54.12748221 -9.8170448 49.96026242 -9.82641602 45.79296875 C-9.83748794 41.48629443 -9.87189613 37.18013574 -9.91158772 32.87364388 C-9.93771576 29.56394481 -9.94610436 26.2543694 -9.94969749 22.94457626 C-9.95457244 21.35692736 -9.96621228 19.76928432 -9.98473549 18.18173599 C-10.00905005 15.95993248 -10.00817702 13.73947358 -10.0012207 11.51757812 C-10.00708694 10.25342072 -10.01295319 8.98926331 -10.01899719 7.6867981 C-9.53125 4.48583984 -9.53125 4.48583984 -7.84757996 2.07672119 C-5.00217538 0.12246547 -3.43424095 -0.01005015 0 0 Z " fill="#78909C" transform="translate(345.53125,239.51416015625)"/>
<path d="M0 0 C10.56 0 21.12 0 32 0 C32 15.84 32 31.68 32 48 C21.44 48 10.88 48 0 48 C0 32.16 0 16.32 0 0 Z " fill="#C5F4CC" transform="translate(354,257)"/>
<path d="M0 0 C4.8846525 2.26787438 7.73212562 5.1153475 10 10 C10.75381535 15.5997712 10.77303575 20.33499991 8.375 25.5 C3.80134327 30.3143755 0.6912538 32.25156236 -6 32.5 C-12.6912538 32.25156236 -15.80134327 30.3143755 -20.375 25.5 C-22.77303575 20.33499991 -22.75381535 15.5997712 -22 10 C-17.52212837 0.3553534 -9.85292056 -1.32635469 0 0 Z " fill="#78909C" transform="translate(230,392)"/>
<path d="M0 0 C4.8846525 2.26787438 7.73212562 5.1153475 10 10 C10.75381535 15.5997712 10.77303575 20.33499991 8.375 25.5 C3.80134327 30.3143755 0.6912538 32.25156236 -6 32.5 C-12.6912538 32.25156236 -15.80134327 30.3143755 -20.375 25.5 C-22.77303575 20.33499991 -22.75381535 15.5997712 -22 10 C-17.52212837 0.3553534 -9.85292056 -1.32635469 0 0 Z " fill="#78909C" transform="translate(182,392)"/>
<path d="M0 0 C4.8846525 2.26787438 7.73212562 5.1153475 10 10 C10.75381535 15.5997712 10.77303575 20.33499991 8.375 25.5 C3.80134327 30.3143755 0.6912538 32.25156236 -6 32.5 C-12.6912538 32.25156236 -15.80134327 30.3143755 -20.375 25.5 C-22.77303575 20.33499991 -22.75381535 15.5997712 -22 10 C-17.52212837 0.3553534 -9.85292056 -1.32635469 0 0 Z " fill="#78909C" transform="translate(134,392)"/>
<path d="M0 0 C4.8846525 2.26787438 7.73212562 5.1153475 10 10 C10.75381535 15.5997712 10.77303575 20.33499991 8.375 25.5 C3.80134327 30.3143755 0.6912538 32.25156236 -6 32.5 C-12.6912538 32.25156236 -15.80134327 30.3143755 -20.375 25.5 C-22.77303575 20.33499991 -22.75381535 15.5997712 -22 10 C-17.52212837 0.3553534 -9.85292056 -1.32635469 0 0 Z " fill="#78909C" transform="translate(230,344)"/>
<path d="M0 0 C4.8846525 2.26787438 7.73212562 5.1153475 10 10 C10.75381535 15.5997712 10.77303575 20.33499991 8.375 25.5 C3.80134327 30.3143755 0.6912538 32.25156236 -6 32.5 C-12.6912538 32.25156236 -15.80134327 30.3143755 -20.375 25.5 C-22.77303575 20.33499991 -22.75381535 15.5997712 -22 10 C-17.52212837 0.3553534 -9.85292056 -1.32635469 0 0 Z " fill="#78909C" transform="translate(182,344)"/>
<path d="M0 0 C4.8846525 2.26787438 7.73212562 5.1153475 10 10 C10.75381535 15.5997712 10.77303575 20.33499991 8.375 25.5 C3.80134327 30.3143755 0.6912538 32.25156236 -6 32.5 C-12.6912538 32.25156236 -15.80134327 30.3143755 -20.375 25.5 C-22.77303575 20.33499991 -22.75381535 15.5997712 -22 10 C-17.52212837 0.3553534 -9.85292056 -1.32635469 0 0 Z " fill="#78909C" transform="translate(134,344)"/>
<path d="M0 0 C4.8846525 2.26787438 7.73212562 5.1153475 10 10 C10.75381535 15.5997712 10.77303575 20.33499991 8.375 25.5 C3.80134327 30.3143755 0.6912538 32.25156236 -6 32.5 C-12.6912538 32.25156236 -15.80134327 30.3143755 -20.375 25.5 C-22.77303575 20.33499991 -22.75381535 15.5997712 -22 10 C-17.52212837 0.3553534 -9.85292056 -1.32635469 0 0 Z " fill="#78909C" transform="translate(230,296)"/>
<path d="M0 0 C4.8846525 2.26787438 7.73212562 5.1153475 10 10 C10.75381535 15.5997712 10.77303575 20.33499991 8.375 25.5 C3.80134327 30.3143755 0.6912538 32.25156236 -6 32.5 C-12.6912538 32.25156236 -15.80134327 30.3143755 -20.375 25.5 C-22.77303575 20.33499991 -22.75381535 15.5997712 -22 10 C-17.52212837 0.3553534 -9.85292056 -1.32635469 0 0 Z " fill="#78909C" transform="translate(182,296)"/>
<path d="M0 0 C4.8846525 2.26787438 7.73212562 5.1153475 10 10 C10.75381535 15.5997712 10.77303575 20.33499991 8.375 25.5 C3.80134327 30.3143755 0.6912538 32.25156236 -6 32.5 C-12.6912538 32.25156236 -15.80134327 30.3143755 -20.375 25.5 C-22.77303575 20.33499991 -22.75381535 15.5997712 -22 10 C-17.52212837 0.3553534 -9.85292056 -1.32635469 0 0 Z " fill="#78909C" transform="translate(134,296)"/>
<path d="M0 0 C1.68128998 0.00045319 1.68128998 0.00045319 3.39654541 0.00091553 C4.60083191 0.02156067 5.80511841 0.04220581 7.04589844 0.06347656 C8.28321716 0.06913635 9.52053589 0.07479614 10.79534912 0.08062744 C14.0770528 0.09921905 17.35796625 0.13512658 20.6394043 0.17944336 C23.9909741 0.22043991 27.34257788 0.23830655 30.69433594 0.25878906 C37.26495734 0.30290252 43.83505076 0.36985079 50.40527344 0.45410156 C50.40527344 0.78410156 50.40527344 1.11410156 50.40527344 1.45410156 C49.40049202 1.46290092 49.40049202 1.46290092 48.37541199 1.47187805 C41.41625312 1.53571137 34.45756102 1.62010484 27.4987793 1.71655273 C24.90020901 1.749849 22.30156557 1.7778661 19.70288086 1.80053711 C15.97185025 1.83399607 12.24149283 1.88630885 8.51074219 1.94238281 C6.76219185 1.9519677 6.76219185 1.9519677 4.97831726 1.96174622 C3.35697624 1.99143745 3.35697624 1.99143745 1.70288086 2.02172852 C0.75023849 2.03283157 -0.20240387 2.04393463 -1.18391418 2.05537415 C-3.59510125 2.29989346 -3.59510125 2.29989346 -5.40354919 3.5554657 C-7.21566126 6.44381889 -6.96108382 8.87804853 -6.95117188 12.26464844 C-6.95423843 13.2968325 -6.95423843 13.2968325 -6.95736694 14.34986877 C-6.96037502 16.62446672 -6.94189724 18.89833977 -6.92285156 21.17285156 C-6.91979371 22.75321269 -6.91791779 24.33357652 -6.91717529 25.91394043 C-6.912572 29.22609776 -6.89814571 32.538012 -6.87597656 35.85009766 C-6.84769421 40.09723137 -6.83676498 44.34417358 -6.83229446 48.59139252 C-6.82813869 51.8547355 -6.81831987 55.11803972 -6.80641937 58.38136292 C-6.80071921 59.94747101 -6.79595966 61.51358282 -6.7921524 63.07969666 C-6.78528204 65.26771593 -6.7716459 67.45558383 -6.75585938 69.64355469 C-6.74903137 70.88915161 -6.74220337 72.13474854 -6.73516846 73.41809082 C-6.73055506 76.50003606 -6.73055506 76.50003606 -5.59472656 79.45410156 C-6.58472656 79.12410156 -7.57472656 78.79410156 -8.59472656 78.45410156 C-10.05531983 75.53291503 -9.74629205 72.94349916 -9.77172852 69.68115234 C-9.77829971 68.98502838 -9.78487091 68.28890442 -9.79164124 67.57168579 C-9.81137855 65.26426083 -9.82303697 62.95690092 -9.83300781 60.64941406 C-9.83708334 59.86189632 -9.84115887 59.07437859 -9.84535789 58.26299667 C-9.86621929 54.09574393 -9.88052136 49.92852414 -9.88989258 45.76123047 C-9.9009645 41.45455615 -9.93537269 37.14839746 -9.97506428 32.84190559 C-10.00119232 29.53220653 -10.00958092 26.22263112 -10.01317406 22.91283798 C-10.018049 21.32518908 -10.02968884 19.73754603 -10.04821205 18.14999771 C-10.07252662 15.9281942 -10.07165358 13.7077353 -10.06469727 11.48583984 C-10.07056351 10.22168243 -10.07642975 8.95752502 -10.08247375 7.65505981 C-9.59472656 4.45410156 -9.59472656 4.45410156 -7.9150238 2.04299927 C-5.0451962 0.07779308 -3.46068027 -0.0311773 0 0 Z " fill="#BAE5C4" transform="translate(345.5947265625,239.5458984375)"/>
</svg>
