<svg id="Component_3_1" data-name="Component 3 – 1" xmlns="http://www.w3.org/2000/svg" width="44" height="44" viewBox="0 0 44 44">
  <path id="Rectangle_135" data-name="Rectangle 135" d="M0,0H36a8,8,0,0,1,8,8V36a8,8,0,0,1-8,8H0a0,0,0,0,1,0,0V0A0,0,0,0,1,0,0Z" fill="#fff" opacity="0"/>
  <path id="Layer_15" data-name="Layer 15" d="M3.426,6h3.02a2.556,2.556,0,0,0,5.035,0h8.983a.426.426,0,0,0,0-.852H11.481a2.556,2.556,0,0,0-5.035,0H3.426a.426.426,0,1,0,0,.852Zm5.537-2.13a1.7,1.7,0,1,1-1.7,1.7A1.7,1.7,0,0,1,8.963,3.872Zm11.5,7.667h-3.02a2.556,2.556,0,0,0-5.035,0H3.426a.426.426,0,1,0,0,.852h8.983a2.556,2.556,0,0,0,5.035,0h3.02a.426.426,0,0,0,0-.852Zm-5.537,2.13a1.7,1.7,0,1,1,1.7-1.7A1.7,1.7,0,0,1,14.926,13.669Zm5.537,4.259H11.481a2.556,2.556,0,0,0-5.035,0H3.426a.426.426,0,0,0,0,.852h3.02a2.556,2.556,0,0,0,5.035,0h8.983a.426.426,0,0,0,0-.852Zm-11.5,2.13a1.7,1.7,0,1,1,1.7-1.7A1.7,1.7,0,0,1,8.963,20.058Z" transform="translate(10.055 10.035)" fill="#4e5567" stroke="#4e5567" stroke-width="0.5"/>
</svg>
