<?xml version="1.0" encoding="UTF-8"?>
<svg version="1.1" xmlns="http://www.w3.org/2000/svg" width="80" height="80">
<path d="M0 0 C0.7940625 -0.00773438 1.588125 -0.01546875 2.40625 -0.0234375 C6.71873638 -0.00906255 10.07128619 0.25395992 14 2.25 C13.67 3.57 13.34 4.89 13 6.25 C14.98 6.91 16.96 7.57 19 8.25 C18.38461538 13.78846154 18.38461538 13.78846154 16.4375 16.125 C15.963125 16.49625 15.48875 16.8675 15 17.25 C16.11508316 20.59524949 16.81291942 21.09221693 19.5 23.1875 C28.48312604 30.84815506 36.97722487 41.85776478 38.4375 53.83984375 C38.61079493 59.00078329 38.48487432 63.07822038 36.5 67.875 C29.21355135 74.79712622 19.55166453 76.55517125 9.80078125 76.5859375 C9.04387497 76.5925943 8.28696869 76.5992511 7.50712585 76.60610962 C5.91468711 76.61616767 4.3222068 76.62092878 2.72973633 76.62060547 C0.33536517 76.62495843 -2.05712805 76.66129233 -4.45117188 76.69921875 C-26.68251635 76.86237216 -26.68251635 76.86237216 -34.1875 69.6875 C-38.95685847 63.27353516 -39.0170957 58.12657833 -38 50.25 C-33.39113871 37.03979879 -24.6061838 27.0393838 -14 18.25 C-14.845625 17.363125 -15.69125 16.47625 -16.5625 15.5625 C-19.02603251 12.6491652 -19.02603251 12.6491652 -18.8125 9.375 C-18.544375 8.67375 -18.27625 7.9725 -18 7.25 C-16.35 6.92 -14.7 6.59 -13 6.25 C-13.33 4.93 -13.66 3.61 -14 2.25 C-9.3403073 -0.11742452 -5.09929446 -0.04966845 0 0 Z " fill="#F68F8E" transform="translate(40,1.75)"/>
<path d="M0 0 C0.7940625 -0.00773438 1.588125 -0.01546875 2.40625 -0.0234375 C6.71873638 -0.00906255 10.07128619 0.25395992 14 2.25 C13.67 3.57 13.34 4.89 13 6.25 C14.98 6.91 16.96 7.57 19 8.25 C18.38461538 13.78846154 18.38461538 13.78846154 16.4375 16.125 C15.963125 16.49625 15.48875 16.8675 15 17.25 C14.01 16.92 13.02 16.59 12 16.25 C13.98 13.94 15.96 11.63 18 9.25 C15.69 9.25 13.38 9.25 11 9.25 C10.01 11.23 9.02 13.21 8 15.25 C7 12.25 7 12.25 7.77734375 10.20703125 C8.35162109 9.14548828 8.35162109 9.14548828 8.9375 8.0625 C9.50791016 6.98935547 9.50791016 6.98935547 10.08984375 5.89453125 C10.39019531 5.35183594 10.69054688 4.80914062 11 4.25 C7.36211946 1.95813526 4.2381715 1.98204165 0 2 C-1.8253125 1.99226562 -1.8253125 1.99226562 -3.6875 1.984375 C-6.75288791 2.23018441 -8.43662952 2.6350766 -11 4.25 C-10.484375 5.178125 -9.96875 6.10625 -9.4375 7.0625 C-8 10.25 -8 10.25 -9 13.25 C-9.66 11.93 -10.32 10.61 -11 9.25 C-13.31 9.25 -15.62 9.25 -18 9.25 C-16.02852473 12.79865549 -13.91020046 15.43600451 -11 18.25 C-12.28548409 19.58929505 -13.57858155 20.92128643 -14.875 22.25 C-15.59429688 22.9925 -16.31359375 23.735 -17.0546875 24.5 C-19 26.25 -19 26.25 -21 26.25 C-21.26039062 26.82234375 -21.52078125 27.3946875 -21.7890625 27.984375 C-23.09318203 30.42434058 -24.6172296 32.36611279 -26.375 34.5 C-29.57436539 38.54410428 -31.92823307 42.54427812 -34 47.25 C-34.4125 48.075 -34.825 48.9 -35.25 49.75 C-36.76080769 54.78602565 -36.34719567 58.96971597 -35 63.9375 C-31.86418005 69.1312018 -28.24545754 71.28986464 -22.46484375 73 C-14.84006179 74.47775047 -7.11716524 74.44711558 0.625 74.5 C1.67357178 74.50942627 2.72214355 74.51885254 3.80249023 74.52856445 C13.58756613 74.48787328 23.65703078 73.86664267 32 68.25 C35.96637057 64.15568199 36.25489147 60.02355561 36.22143555 54.44335938 C35.84278434 50.69275026 34.30526648 47.6754855 32.5625 44.375 C32.20414062 43.68027588 31.84578125 42.98555176 31.4765625 42.26977539 C26.44943713 32.91023336 19.13815912 25.94679579 11 19.25 C11.99 18.92 12.98 18.59 14 18.25 C24.84055855 27.23794194 36.63416683 39.11415299 38.43359375 53.78515625 C38.44399448 63.17701335 38.44399448 63.17701335 36.5 67.875 C29.21355135 74.79712622 19.55166453 76.55517125 9.80078125 76.5859375 C9.04387497 76.5925943 8.28696869 76.5992511 7.50712585 76.60610962 C5.91468711 76.61616767 4.3222068 76.62092878 2.72973633 76.62060547 C0.33536517 76.62495843 -2.05712805 76.66129233 -4.45117188 76.69921875 C-26.68251635 76.86237216 -26.68251635 76.86237216 -34.1875 69.6875 C-38.95685847 63.27353516 -39.0170957 58.12657833 -38 50.25 C-33.39113871 37.03979879 -24.6061838 27.0393838 -14 18.25 C-14.845625 17.363125 -15.69125 16.47625 -16.5625 15.5625 C-19.02603251 12.6491652 -19.02603251 12.6491652 -18.8125 9.375 C-18.544375 8.67375 -18.27625 7.9725 -18 7.25 C-16.35 6.92 -14.7 6.59 -13 6.25 C-13.33 4.93 -13.66 3.61 -14 2.25 C-9.3403073 -0.11742452 -5.09929446 -0.04966845 0 0 Z " fill="#CB4949" transform="translate(40,1.75)"/>
<path d="M0 0 C1.794375 -0.00773438 1.794375 -0.00773438 3.625 -0.015625 C6.85804974 0.23882799 9.09417459 0.86312878 12 2.25 C11.01 4.89 10.02 7.53 9 10.25 C9.66 9.26 10.32 8.27 11 7.25 C13.31 7.58 15.62 7.91 18 8.25 C16.54572979 11.64329715 14.81956046 13.86094649 12 16.25 C8.24532604 17.17032468 4.41919397 17.13059771 0.5625 17.25 C-0.99307617 17.34474609 -0.99307617 17.34474609 -2.58007812 17.44140625 C-10.15311028 17.74296566 -10.15311028 17.74296566 -14.140625 15.421875 C-16.1156954 13.11485999 -17.11558924 11.1444352 -18 8.25 C-14.625 7.625 -14.625 7.625 -11 7.25 C-10.34 7.91 -9.68 8.57 -9 9.25 C-9.99 6.94 -10.98 4.63 -12 2.25 C-7.89003576 0.28842616 -4.53353543 -0.0195411 0 0 Z " fill="#F48B8B" transform="translate(40,2.75)"/>
<path d="M0 0 C5.28 0 10.56 0 16 0 C16 1.32 16 2.64 16 4 C12.04 4 8.08 4 4 4 C4 6.31 4 8.62 4 11 C7.3 11 10.6 11 14 11 C14 11.99 14 12.98 14 14 C10.7 14 7.4 14 4 14 C4 15.65 4 17.3 4 19 C5.98 19 7.96 19 10 19 C10 19.99 10 20.98 10 22 C8.02 22 6.04 22 4 22 C4 23.32 4 24.64 4 26 C2.68 26 1.36 26 0 26 C0 24.68 0 23.36 0 22 C-0.66 22 -1.32 22 -2 22 C-2 21.01 -2 20.02 -2 19 C-1.34 19 -0.68 19 0 19 C0 12.73 0 6.46 0 0 Z " fill="#FFFFFF" transform="translate(32,38)"/>
<path d="M0 0 C1.6097168 0.00966797 1.6097168 0.00966797 3.25195312 0.01953125 C4.9312793 0.04466797 4.9312793 0.04466797 6.64453125 0.0703125 C7.77568359 0.07933594 8.90683594 0.08835937 10.07226562 0.09765625 C12.86739953 0.12124388 15.6621097 0.1541595 18.45703125 0.1953125 C18.45703125 0.5253125 18.45703125 0.8553125 18.45703125 1.1953125 C10.86703125 1.5253125 3.27703125 1.8553125 -4.54296875 2.1953125 C-6.89093111 7.67389135 -8.02967899 10.97258749 -8.73046875 16.6328125 C-8.96830078 18.48712891 -8.96830078 18.48712891 -9.2109375 20.37890625 C-9.32050781 21.30832031 -9.43007813 22.23773438 -9.54296875 23.1953125 C-9.87296875 23.1953125 -10.20296875 23.1953125 -10.54296875 23.1953125 C-10.89990926 10.94035499 -10.89990926 10.94035499 -8.54296875 5.1953125 C-8.54296875 4.2053125 -8.54296875 3.2153125 -8.54296875 2.1953125 C-5.14399202 -0.07067198 -3.97977702 -0.04211404 0 0 Z " fill="#FDDB9E" transform="translate(35.54296875,18.8046875)"/>
<path d="M0 0 C0.66 1.32 1.32 2.64 2 4 C-1.00584653 9.51071863 -4.09802661 11.88856148 -10 14 C-13.30421177 14.94965494 -16.55748178 15.84102047 -20 16 C-20.99 15.34 -21.98 14.68 -23 14 C-22.29875 13.90203125 -21.5975 13.8040625 -20.875 13.703125 C-13.81353843 12.59017725 -7.19126574 11.29420979 -2.0625 6 C-0.99689999 3.99416469 -0.39847636 2.23146762 0 0 Z " fill="#D05050" transform="translate(76,62)"/>
<path d="M0 0 C0.66 0.33 1.32 0.66 2 1 C0.88121617 2.17262904 -0.24523051 3.33795138 -1.375 4.5 C-2.00148438 5.1496875 -2.62796875 5.799375 -3.2734375 6.46875 C-5 8 -5 8 -7 8 C-7.268125 8.639375 -7.53625 9.27875 -7.8125 9.9375 C-9 12 -9 12 -12 13 C-10.44997253 9.11602311 -7.99523379 6.97020381 -4.875 4.25 C-3.96492188 3.45078125 -3.05484375 2.6515625 -2.1171875 1.828125 C-1.06917969 0.92320313 -1.06917969 0.92320313 0 0 Z " fill="#CE5451" transform="translate(26,20)"/>
<path d="M0 0 C0.66 0.33 1.32 0.66 2 1 C0.31326082 5.49797113 -1.81673892 9.72886302 -4 14 C-5 11 -5 11 -4.1875 9.02734375 C-3.795625 8.33769531 -3.40375 7.64804688 -3 6.9375 C-1.80965456 4.91563601 -1.80965456 4.91563601 -1 3 C-1.33 2.34 -1.66 1.68 -2 1 C-1.34 0.67 -0.68 0.34 0 0 Z " fill="#D35555" transform="translate(52,3)"/>
<path d="M0 0 C4.37859255 0.50522222 6.81651224 3.17827222 10 6 C9.67 6.99 9.34 7.98 9 9 C7.49704815 7.69088122 5.99770689 6.37761608 4.5 5.0625 C3.6646875 4.33160156 2.829375 3.60070312 1.96875 2.84765625 C1.3190625 2.23792969 0.669375 1.62820312 0 1 C0 0.67 0 0.34 0 0 Z " fill="#CD4F4F" transform="translate(51,20)"/>
</svg>
