<svg width="49" height="49" viewBox="0 0 49 49" fill="none" xmlns="http://www.w3.org/2000/svg">
<circle cx="24.562" cy="24.8278" r="24.0634" fill="#00AA96" fill-opacity="0.07"/>
<path d="M16.0141 38.1964H32.7586C33.4522 38.1964 34.0145 37.6341 34.0145 36.9406V22.7077C34.0145 22.0142 33.4522 21.4519 32.7586 21.4519H31.5028V17.6844C31.5028 13.7604 28.3104 10.568 24.3864 10.568C20.4624 10.568 17.27 13.7604 17.27 17.6844V21.4519H16.0141C15.3206 21.4519 14.7583 22.0142 14.7583 22.7077V36.9406C14.7583 37.6341 15.3206 38.1964 16.0141 38.1964ZM25.6422 30.2416V31.9172C25.6422 32.6108 25.0799 33.173 24.3864 33.173C23.6928 33.173 23.1305 32.6108 23.1305 31.9172V30.2416C22.6225 29.8594 22.2933 29.2517 22.2933 28.5683C22.2933 27.4142 23.2323 26.4753 24.3864 26.4753C25.5405 26.4753 26.4794 27.4142 26.4794 28.5683C26.4794 29.2517 26.1502 29.8594 25.6422 30.2416ZM19.7816 17.6844C19.7816 15.1453 21.8473 13.0797 24.3864 13.0797C26.9254 13.0797 28.9911 15.1453 28.9911 17.6844V21.4519H19.7816V17.6844Z" fill="#00AA98"/>
</svg>
