<svg width="49" height="49" viewBox="0 0 49 49" fill="none" xmlns="http://www.w3.org/2000/svg">
<circle cx="24.0634" cy="24.0634" r="24.0634" fill="#00AA96" fill-opacity="0.07"/>
<path d="M34.9764 31.2925C33.9614 29.4882 32.299 27.4446 29.5926 26.2828C28.0447 27.3657 26.1643 28.0033 24.1371 28.0033C22.1088 28.0033 20.2284 27.3658 18.6805 26.2828C15.9742 27.4446 14.3117 29.4883 13.2973 31.2925C11.951 33.6856 13.0065 37.0717 15.3349 37.0717C17.6634 37.0717 24.1372 37.0717 24.1372 37.0717C24.1372 37.0717 30.6104 37.0717 32.9389 37.0717C35.2672 37.0717 36.3227 33.6856 34.9764 31.2925Z" fill="#00AA96"/>
<path d="M24.1371 26.2828C28.1126 26.2828 31.3344 23.0599 31.3344 19.0849V17.3607C31.3344 13.3858 28.1126 10.1628 24.1371 10.1628C20.161 10.1628 16.9387 13.3858 16.9387 17.3607V19.085C16.9387 23.0599 20.1611 26.2828 24.1371 26.2828Z" fill="#00AA96"/>
</svg>
