<svg xmlns="http://www.w3.org/2000/svg" width="15.123" height="15.833" viewBox="0 0 15.123 15.833">
  <g id="Group_3944" data-name="Group 3944" transform="translate(0)">
    <path id="Path_1756" data-name="Path 1756" d="M6.827-.281a6.3,6.3,0,0,1,7.328,7.822c-1.12,3.926-3.572,7.337-7.328,7.822S.731,12.161-.5,7.541,1.726.78,6.827-.281Z" transform="translate(0.752 0.427)" fill="#4880fb" opacity="0.1"/>
    <path id="Path_1763" data-name="Path 1763" d="M12.15,9.453a.693.693,0,0,1,.98,0L14.978,11.3a.693.693,0,0,1,0,.98L13.13,14.13a.693.693,0,0,1-.98-.98l.665-.665H10.791a7.983,7.983,0,0,0-.922.028.65.65,0,0,0-.154.034l-.01,0h0v0l0,.01a.651.651,0,0,0-.034.154,7.975,7.975,0,0,0-.028.922.693.693,0,0,1-1.386,0q0-.021,0-.041a8.583,8.583,0,0,1,.04-1.065,1.491,1.491,0,0,1,1.4-1.4,8.573,8.573,0,0,1,1.065-.04h2.065l-.665-.665A.693.693,0,0,1,12.15,9.453ZM9.7,12.552h0" transform="translate(-4.154 -4.25)" fill="#4880fb" fill-rule="evenodd"/>
  </g>
</svg>