<svg xmlns="http://www.w3.org/2000/svg" width="15.123" height="15.833" viewBox="0 0 15.123 15.833">
  <g id="Group_3944" data-name="Group 3944" transform="translate(0)">
    <path id="Path_1756" data-name="Path 1756" d="M6.827-.281a6.3,6.3,0,0,1,7.328,7.822c-1.12,3.926-3.572,7.337-7.328,7.822S.731,12.161-.5,7.541,1.726.78,6.827-.281Z" transform="translate(0.752 0.427)" fill="#4fc369" opacity="0.1"/>
    <path id="Path_1757" data-name="Path 1757" d="M8.876,13.666a.227.227,0,0,1-.161-.066l-1.71-1.71a.227.227,0,1,1,.322-.32L8.876,13.12l3.774-3.774a.227.227,0,1,1,.32.322L9.035,13.6A.227.227,0,0,1,8.876,13.666Z" transform="translate(-2.427 -3.556)" fill="#4fc369" stroke="#4fc369" stroke-width="1.2"/>
  </g>
</svg>