<svg xmlns="http://www.w3.org/2000/svg" width="15.562" height="15.833" viewBox="0 0 15.562 15.833" >
                        <g id="Group_3944" data-name="Group 3944" transform="translate(0.368)">
                          <path id="Path_1756" data-name="Path 1756" d="M6.827-.281a6.3,6.3,0,0,1,7.328,7.822c-1.12,3.926-3.572,7.337-7.328,7.822S.731,12.161-.5,7.541,1.726.78,6.827-.281Z" transform="translate(0.752 0.427)" fill="#f4945e" opacity="0.1"/>
                          <path id="Path_1764" data-name="Path 1764" d="M10.79,7.339H7.4V4.025" transform="translate(0.103 0.161)" fill="none" stroke="#f4945e" stroke-width="1.3"/>
                          <path id="Path_1766" data-name="Path 1766" d="M5.976.122C9.014.122,11,2.462,11,5.5A5.5,5.5,0,0,1,5.5,11C3.214,11,1.767,10.795.793,8.319" transform="translate(14.684 4.362) rotate(111)" fill="none" stroke="#f4945e" stroke-linecap="round" stroke-linejoin="round" stroke-width="1.3" stroke-dasharray="0.1 1.8"/>
                          <path id="Path_1765" data-name="Path 1765" d="M5.5,0A5.5,5.5,0,0,1,11,5.5" transform="translate(2 2)" fill="none" stroke="#f4945e" stroke-linecap="round" stroke-width="1.3"/>
                        </g>
                      </svg>